<svg width="1200" height="484" viewBox="0 0 1200 484" fill="none" xmlns="http://www.w3.org/2000/svg">
<g clip-path="url(#clip0_1678_62)">
<rect width="1200" height="484" rx="43" fill="#090927"/>
<g opacity="0.5" style="mix-blend-mode:overlay">
<rect width="1200" height="626" rx="35" fill="#0B0E14"/>
</g>
<path d="M82.4679 279.5V92.9585H119.265V247.813H182.127V279.5H82.4679ZM243.2 279.5V176.774H202.314V146.621H278.975V279.5H243.2ZM257.51 131.289C250.015 131.289 244.052 129.245 239.623 125.156C235.193 121.067 232.979 115.446 232.979 108.291C232.979 101.136 235.193 95.5138 239.623 91.4252C244.052 87.3367 249.929 85.2924 257.255 85.2924C264.75 85.2924 270.628 87.3367 274.887 91.4252C279.316 95.5138 281.531 101.136 281.531 108.291C281.531 115.446 279.316 121.067 274.887 125.156C270.628 129.245 264.836 131.289 257.51 131.289ZM319.861 304.543C341.156 304.543 356.318 301.902 365.347 296.621C374.546 291.34 379.146 282.652 379.146 270.556V161.442L387.067 179.841C381.957 177.967 377.698 176.689 374.29 176.008C370.883 175.156 367.732 174.73 364.836 174.73C359.725 174.73 355.721 175.752 352.825 177.797C349.929 179.67 347.885 182.992 346.692 187.762C345.5 192.532 344.904 199.176 344.904 207.694C344.904 217.064 345.5 224.475 346.692 229.926C348.055 235.207 350.27 238.955 353.336 241.17C356.403 243.214 360.747 244.236 366.369 244.236C369.265 244.236 372.331 243.98 375.568 243.469C378.975 242.788 383.149 241.851 388.089 240.658L396.778 271.834C392.519 272.515 388.089 273.112 383.49 273.623C378.89 274.134 374.12 274.389 369.18 274.389C354.87 274.389 343.371 272.175 334.682 267.745C325.994 263.146 319.606 255.905 315.517 246.025C311.599 236.144 309.64 223.112 309.64 206.928C309.64 191.595 311.599 179.33 315.517 170.13C319.435 160.931 325.739 154.287 334.427 150.199C343.285 146.11 354.955 144.066 369.435 144.066C386.982 144.066 401.974 146.791 414.41 152.243V268.001C414.41 291.169 406.744 308.205 391.411 319.108C376.079 330.181 352.229 335.718 319.861 335.718V304.543ZM499.248 194.662C499.248 189.381 498.651 185.377 497.459 182.652C496.437 179.756 494.563 177.711 491.837 176.519C489.282 175.326 485.619 174.73 480.849 174.73C478.294 174.73 475.909 174.986 473.694 175.497C471.65 175.837 469.265 176.519 466.539 177.541C463.984 178.563 460.491 180.182 456.062 182.396L447.629 152.754C453.592 149.517 459.384 147.303 465.006 146.11C470.628 144.747 477.612 144.066 485.96 144.066C498.396 144.066 508.106 145.514 515.091 148.41C522.246 151.306 527.272 156.331 530.168 163.486C533.064 170.471 534.512 180.182 534.512 192.618V279.5H499.248V194.662ZM430.253 279.5V92.9585H465.517V279.5H430.253ZM615.517 282.055C599.333 282.055 587.663 278.904 580.508 272.601C573.524 266.127 570.031 255.394 570.031 240.403V176.774H541.667V146.621H570.031V103.18H605.806V146.621H648.992V176.774H605.806V231.715C605.806 239.21 606.999 244.321 609.384 247.047C611.939 249.602 616.709 250.88 623.694 250.88C628.294 250.88 632.723 250.454 636.982 249.602C641.411 248.75 645.414 247.558 648.992 246.025V277.2C643.541 278.904 638.089 280.096 632.638 280.778C627.186 281.629 621.479 282.055 615.517 282.055ZM710.832 282.055C703.166 282.055 695.67 281.459 688.345 280.267C681.019 279.244 674.12 277.711 667.646 275.667V241.425C673.779 243.98 680.338 246.025 687.322 247.558C694.477 249.091 701.121 249.858 707.254 249.858C715.602 249.858 721.99 248.41 726.419 245.514C730.849 242.447 733.063 238.018 733.063 232.226C733.063 228.819 732.212 225.667 730.508 222.771C728.975 219.704 726.249 216.638 722.331 213.572C718.583 210.335 713.387 206.842 706.743 203.095C695.84 196.621 687.152 190.403 680.678 184.44C674.205 178.308 669.52 171.834 666.624 165.02C663.898 158.035 662.535 150.199 662.535 141.51C662.535 124.134 668.072 111.272 679.145 102.924C690.389 94.5769 706.828 90.4031 728.464 90.4031C734.426 90.4031 740.559 90.7438 746.862 91.4252C753.336 91.9363 759.724 92.8733 766.028 94.2361V151.732H730.253V108.035L742.774 123.623C740.218 123.282 737.578 123.027 734.852 122.856C732.126 122.686 729.656 122.601 727.442 122.601C717.391 122.601 710.15 124.134 705.721 127.2C701.462 130.096 699.333 135.037 699.333 142.021C699.333 146.28 700.184 150.199 701.888 153.776C703.762 157.354 706.828 160.931 711.087 164.509C715.517 167.916 721.394 171.749 728.719 176.008C738.941 181.97 747.033 187.762 752.995 193.384C759.128 198.836 763.472 204.798 766.028 211.272C768.583 217.575 769.861 224.9 769.861 233.248C769.861 249.773 765.005 262.038 755.295 270.045C745.755 278.052 730.934 282.055 710.832 282.055ZM785.448 152.243C797.885 146.791 812.876 144.066 830.423 144.066C845.074 144.066 856.743 146.28 865.431 150.71C874.12 154.969 880.423 161.953 884.341 171.664C888.259 181.374 890.218 194.321 890.218 210.505C890.218 227.711 888.259 241.595 884.341 252.158C880.423 262.549 874.034 270.13 865.176 274.9C856.488 279.67 844.988 282.055 830.678 282.055C825.908 282.055 821.138 281.8 816.368 281.289C811.769 280.778 807.339 280.096 803.08 279.244L811.769 247.813C816.709 249.347 820.883 250.454 824.29 251.135C827.697 251.647 830.764 251.902 833.489 251.902C839.111 251.902 843.455 250.71 846.522 248.325C849.758 245.94 851.973 241.851 853.166 236.059C854.358 230.096 854.954 221.834 854.954 211.272C854.954 201.902 854.358 194.577 853.166 189.296C851.973 184.015 849.929 180.267 847.033 178.052C844.137 175.837 840.133 174.73 835.022 174.73C832.126 174.73 828.975 175.156 825.568 176.008C822.16 176.689 817.902 177.967 812.791 179.841L820.712 161.442V333.163H785.448V152.243ZM962.28 282.055C940.814 282.055 924.886 276.859 914.494 266.468C904.102 255.905 898.907 239.807 898.907 218.171V207.95C898.907 185.974 903.165 169.875 911.683 159.653C920.372 149.262 934 144.066 952.569 144.066C971.138 144.066 984.682 149.262 993.199 159.653C1001.89 169.875 1006.23 185.974 1006.23 207.95V228.648H916.283V200.539H978.123L971.99 209.483C971.99 196.366 970.542 187.251 967.646 182.141C964.75 176.86 959.809 174.219 952.825 174.219C945.84 174.219 940.9 176.86 938.004 182.141C935.107 187.251 933.659 196.366 933.659 209.483V216.638C933.659 226.519 934.426 234.015 935.959 239.125C937.663 244.066 940.729 247.473 945.159 249.347C949.758 251.05 956.487 251.902 965.346 251.902C970.286 251.902 975.227 251.647 980.167 251.135C985.107 250.624 991.24 249.517 998.566 247.813V277.967C992.944 279.159 986.981 280.096 980.678 280.778C974.375 281.629 968.242 282.055 962.28 282.055ZM1082.13 282.055C1039.37 282.055 1017.99 260.761 1017.99 218.171V207.95C1017.99 165.36 1039.45 144.066 1082.38 144.066C1094.31 144.066 1105.21 145.429 1115.09 148.154V205.394H1079.83V153.009L1098.22 179.841C1095.16 178.478 1091.75 177.371 1088 176.519C1084.43 175.667 1080.76 175.241 1077.02 175.241C1068.5 175.241 1062.45 177.882 1058.87 183.163C1055.47 188.274 1053.76 197.388 1053.76 210.505V215.616C1053.76 225.156 1054.61 232.481 1056.32 237.592C1058.19 242.703 1061.43 246.195 1066.03 248.069C1070.8 249.943 1077.53 250.88 1086.21 250.88C1091.33 250.88 1095.93 250.624 1100.01 250.113C1104.27 249.432 1109.3 248.325 1115.09 246.791V277.967C1110.15 279.159 1104.87 280.096 1099.25 280.778C1093.8 281.629 1088.09 282.055 1082.13 282.055Z" fill="url(#paint0_linear_1678_62)"/>
<path d="M66.3924 411.439L78.2551 363.595H84.6781L96.5408 411.439H91.1665L81.5977 369.756H81.3355L71.7667 411.439H66.3924ZM72.4221 398.331V393.744H90.5111V398.331H72.4221ZM99.359 378.801C101.019 378.058 102.789 377.533 104.668 377.228C106.547 376.878 108.666 376.703 111.025 376.703C114.346 376.703 116.924 377.075 118.759 377.817C120.638 378.56 121.948 379.849 122.691 381.684C123.478 383.476 123.871 385.966 123.871 389.156V411.439H118.759V389.418C118.759 387.277 118.54 385.617 118.103 384.437C117.667 383.257 116.88 382.449 115.744 382.012C114.652 381.531 113.101 381.291 111.091 381.291C110.086 381.291 109.146 381.357 108.272 381.488C107.399 381.619 106.525 381.837 105.651 382.143C104.777 382.405 103.816 382.82 102.767 383.388L104.471 380.111V411.439H99.359V378.801Z" fill="#F95A26"/>
<path fill-rule="evenodd" clip-rule="evenodd" d="M238.165 379.023C240.44 379.023 242.384 379.458 243.997 380.326C245.611 381.195 246.934 382.271 247.969 383.553V381.195C247.969 380.782 248.113 380.43 248.403 380.14C248.693 379.809 249.044 379.644 249.458 379.644H255.539C255.952 379.644 256.304 379.809 256.594 380.14C256.924 380.43 257.09 380.782 257.09 381.195L257.152 411.041C257.152 414.144 256.552 416.77 255.352 418.921C254.153 421.073 252.374 422.707 250.016 423.823C247.7 424.982 244.804 425.561 241.329 425.561C238.268 425.561 235.724 425.147 233.697 424.32C231.67 423.534 230.057 422.562 228.857 421.404C227.699 420.287 226.872 419.17 226.375 418.053C225.879 416.936 225.61 416.067 225.569 415.447C225.527 414.992 225.672 414.619 226.003 414.33C226.334 414.04 226.706 413.895 227.12 413.895H233.759C234.131 413.895 234.442 413.978 234.69 414.144C234.98 414.35 235.207 414.681 235.373 415.136C235.579 415.633 235.869 416.15 236.241 416.688C236.613 417.267 237.172 417.742 237.917 418.115C238.703 418.487 239.737 418.673 241.019 418.673C242.467 418.673 243.667 418.466 244.618 418.053C245.569 417.639 246.273 416.936 246.728 415.943C247.224 414.95 247.472 413.606 247.472 411.91V407.752C246.479 408.828 245.218 409.717 243.687 410.421C242.198 411.124 240.357 411.475 238.165 411.475C236.014 411.475 234.111 411.145 232.456 410.483C230.843 409.78 229.499 408.807 228.423 407.566C227.347 406.284 226.52 404.753 225.941 402.975C225.362 401.196 225.031 399.19 224.948 396.956C224.907 395.839 224.907 394.743 224.948 393.667C225.031 391.516 225.362 389.551 225.941 387.772C226.52 385.994 227.347 384.463 228.423 383.181C229.499 381.857 230.843 380.844 232.456 380.14C234.111 379.396 236.014 379.023 238.165 379.023ZM241.019 386.469C239.447 386.469 238.206 386.821 237.296 387.524C236.386 388.186 235.724 389.075 235.31 390.192C234.897 391.309 234.649 392.53 234.566 393.853C234.524 394.846 234.524 395.818 234.566 396.77C234.649 398.135 234.897 399.376 235.31 400.493C235.724 401.609 236.386 402.52 237.296 403.223C238.206 403.885 239.447 404.215 241.019 404.215C242.508 404.215 243.708 403.885 244.618 403.223C245.569 402.52 246.273 401.651 246.728 400.617C247.183 399.541 247.431 398.424 247.472 397.266C247.513 396.811 247.534 396.17 247.534 395.343C247.534 394.474 247.513 393.812 247.472 393.357C247.431 392.199 247.183 391.102 246.728 390.068C246.273 388.993 245.569 388.124 244.618 387.462C243.708 386.8 242.508 386.469 241.019 386.469Z" fill="url(#paint1_linear_1678_62)"/>
<path fill-rule="evenodd" clip-rule="evenodd" d="M328.272 379.023C331.747 379.023 334.642 379.747 336.959 381.195C339.317 382.602 341.075 384.546 342.233 387.028C343.433 389.468 344.033 392.281 344.033 395.467V396.894C344.033 397.307 343.867 397.659 343.536 397.949C343.247 398.238 342.895 398.383 342.481 398.383H322.191V398.879C322.233 400.203 322.481 401.423 322.936 402.54C323.432 403.616 324.115 404.485 324.983 405.146C325.876 405.795 326.927 406.125 328.137 406.138C328.138 406.138 328.139 406.138 328.14 406.138C328.163 406.138 328.187 406.139 328.21 406.139C328.405 406.139 328.593 406.134 328.775 406.124C332.304 406.04 335.807 405.905 339.281 405.722C339.939 405.701 340.453 405.687 340.727 405.687C341.944 405.687 342.478 406.228 342.485 407.445C342.489 408.122 342.621 409.475 342.621 410.557C342.621 411.462 342.076 411.882 341.27 412.061C337.192 412.295 333.075 412.463 328.924 412.562C328.727 412.542 328.53 412.53 328.334 412.53C326.104 412.53 324.088 412.24 322.285 411.658C322.045 411.58 321.808 411.497 321.575 411.409C321.459 411.365 321.344 411.32 321.229 411.274C320.771 411.088 320.328 410.881 319.901 410.653C319.687 410.539 319.477 410.421 319.271 410.296C319.065 410.172 318.862 410.043 318.664 409.909C318.614 409.875 318.565 409.841 318.516 409.807C318.319 409.67 318.126 409.528 317.937 409.38C317.89 409.343 317.843 409.306 317.796 409.269C317.515 409.044 317.243 408.807 316.979 408.559C316.887 408.471 316.797 408.382 316.708 408.292C316.7 408.284 316.693 408.277 316.686 408.269C316.611 408.193 316.537 408.116 316.465 408.038C316.443 408.015 316.422 407.992 316.401 407.968C316.378 407.943 316.355 407.918 316.332 407.893C316.304 407.862 316.277 407.831 316.249 407.8C316.241 407.791 316.233 407.782 316.225 407.773C316.2 407.744 316.175 407.716 316.15 407.687C316.128 407.661 316.106 407.635 316.084 407.609C316.07 407.593 316.057 407.577 316.043 407.561C316.017 407.53 315.991 407.498 315.965 407.467C315.948 407.446 315.93 407.424 315.913 407.403C315.89 407.375 315.868 407.347 315.845 407.318C315.831 407.301 315.818 407.284 315.804 407.267C315.774 407.229 315.744 407.19 315.715 407.152C315.707 407.141 315.699 407.131 315.691 407.121C315.665 407.087 315.64 407.054 315.615 407.02C315.599 407 315.584 406.979 315.569 406.958C315.545 406.927 315.522 406.895 315.499 406.863C315.49 406.85 315.48 406.837 315.47 406.824C315.444 406.787 315.418 406.75 315.392 406.713C315.378 406.693 315.364 406.673 315.35 406.653C315.301 406.583 315.253 406.512 315.206 406.441C315.152 406.359 315.098 406.277 315.045 406.194C313.519 403.782 312.695 400.723 312.573 397.018V394.35C312.739 391.164 313.463 388.434 314.745 386.159C316.028 383.843 317.827 382.085 320.144 380.885C322.46 379.644 325.169 379.023 328.272 379.023ZM328.272 385.228C326.99 385.228 325.893 385.539 324.983 386.159C324.073 386.78 323.37 387.648 322.874 388.765C322.419 389.841 322.191 391.123 322.191 392.612V392.736H334.353V392.612C334.353 391.123 334.105 389.841 333.608 388.765C333.153 387.648 332.471 386.78 331.561 386.159C330.651 385.539 329.554 385.228 328.272 385.228Z" fill="url(#paint2_linear_1678_62)"/>
<path d="M198.523 379.644C198.978 379.644 199.351 379.789 199.64 380.078C199.93 380.368 200.075 380.74 200.075 381.195V398.135C200.075 402.768 202.102 405.085 206.156 405.085C208.1 405.085 209.63 404.485 210.747 403.285C211.905 402.044 212.485 400.327 212.485 398.135V381.195C212.485 380.74 212.629 380.368 212.919 380.078C213.209 379.789 213.581 379.644 214.036 379.644H220.613C221.027 379.644 221.378 379.789 221.668 380.078C221.958 380.368 222.102 380.74 222.102 381.195V410.359C222.102 410.814 221.958 411.186 221.668 411.476C221.378 411.765 221.027 411.91 220.613 411.91H214.532C214.077 411.91 213.705 411.765 213.415 411.476C213.126 411.186 212.981 410.814 212.981 410.359V407.939C211.906 409.428 210.52 410.566 208.824 411.352C207.128 412.138 205.059 412.531 202.619 412.531C200.219 412.531 198.089 411.993 196.228 410.917C194.408 409.8 192.98 408.208 191.946 406.139C190.953 404.03 190.457 401.486 190.457 398.507V381.195C190.457 380.74 190.602 380.368 190.891 380.078C191.181 379.789 191.533 379.644 191.946 379.644H198.523Z" fill="url(#paint3_linear_1678_62)"/>
<path fill-rule="evenodd" clip-rule="evenodd" d="M420.115 379.023C423.59 379.023 426.486 379.747 428.802 381.195C431.16 382.602 432.918 384.546 434.077 387.028C434.241 387.362 434.327 387.649 434.353 387.905C434.388 387.892 434.423 387.88 434.459 387.867C435.262 389.771 435.723 391.888 435.844 394.217C428.975 396.711 421.781 398.983 414.3 401.014C414.42 401.542 414.58 402.051 414.779 402.54C415.276 403.616 415.958 404.485 416.827 405.146C417.737 405.808 418.813 406.139 420.053 406.139C421.088 406.139 421.935 405.994 422.597 405.705C423.259 405.415 423.797 405.064 424.211 404.65C424.666 404.236 424.997 403.885 425.204 403.595C425.576 403.181 425.865 402.933 426.072 402.85C426.32 402.726 426.693 402.664 427.189 402.664H433.642C434.056 402.664 434.387 402.789 434.635 403.037C434.925 403.244 435.049 403.554 435.007 403.967C434.966 404.629 434.614 405.457 433.952 406.449C433.332 407.401 432.401 408.352 431.16 409.304C429.919 410.214 428.368 410.979 426.506 411.599C424.686 412.22 422.577 412.53 420.177 412.53C415.42 412.53 411.635 411.206 408.822 408.559C407.297 407.102 406.167 405.282 405.431 403.099C405.419 403.063 405.407 403.027 405.395 402.992C405.387 402.966 405.378 402.94 405.37 402.914C405.369 402.91 405.367 402.906 405.366 402.902C405.182 402.333 405.025 401.74 404.894 401.123C404.89 401.108 404.887 401.092 404.884 401.076C404.754 400.46 404.651 399.819 404.573 399.155C404.572 399.144 404.571 399.133 404.569 399.123C404.555 399.002 404.542 398.88 404.53 398.757C404.528 398.737 404.526 398.718 404.524 398.698C404.513 398.576 404.501 398.453 404.491 398.33C404.49 398.313 404.489 398.296 404.487 398.28C404.477 398.156 404.469 398.031 404.46 397.905C404.454 397.814 404.45 397.723 404.445 397.631C404.442 397.576 404.438 397.521 404.435 397.465C404.428 397.317 404.422 397.168 404.417 397.018V394.35C404.582 391.164 405.306 388.434 406.589 386.159C407.871 383.843 409.671 382.085 411.987 380.885C414.304 379.644 417.013 379.023 420.115 379.023ZM420.115 385.228C418.833 385.228 417.737 385.539 416.827 386.159C415.917 386.78 415.214 387.648 414.717 388.765C414.262 389.841 414.035 391.123 414.035 392.612V394.409C418.137 393.273 422.145 392.062 426.055 390.782C425.933 390.044 425.732 389.372 425.452 388.765C424.997 387.648 424.314 386.78 423.404 386.159C422.494 385.539 421.398 385.228 420.115 385.228Z" fill="url(#paint4_linear_1678_62)"/>
<path fill-rule="evenodd" clip-rule="evenodd" d="M173.068 368.475C173.73 368.475 174.247 368.641 174.619 368.971C174.992 369.302 175.24 369.695 175.364 370.15L190.132 410.048C190.173 410.214 190.194 410.4 190.194 410.607C190.194 410.938 190.07 411.248 189.822 411.538C189.573 411.786 189.263 411.91 188.891 411.91H182.438C181.817 411.91 181.362 411.765 181.073 411.475C180.783 411.186 180.597 410.917 180.514 410.669L177.846 403.719H160.348L157.68 410.669C157.597 410.917 157.411 411.186 157.121 411.475C156.832 411.765 156.377 411.91 155.756 411.91H149.303C148.931 411.91 148.62 411.786 148.372 411.538C148.124 411.248 148 410.938 148 410.607C148 410.4 148.021 410.214 148.062 410.048L162.83 370.15C162.954 369.695 163.202 369.302 163.575 368.971C163.947 368.641 164.464 368.475 165.126 368.475H173.068ZM162.644 395.715H175.488L169.097 377.844L162.644 395.715Z" fill="url(#paint5_linear_1678_62)"/>
<path d="M278.745 379.023C283.543 378.941 286.832 380.761 288.611 384.484C289.562 382.871 290.927 381.568 292.706 380.575C294.526 379.541 296.512 379.023 298.663 379.023C300.814 379.023 302.758 379.52 304.496 380.513C306.233 381.464 307.598 382.953 308.591 384.98C309.625 386.966 310.142 389.53 310.142 392.674V410.359C310.142 410.814 309.997 411.186 309.708 411.475C309.418 411.765 309.066 411.91 308.653 411.91H302.51C302.096 411.91 301.745 411.765 301.455 411.475C301.166 411.186 301.021 410.814 301.021 410.359V393.171C301.021 391.475 300.773 390.151 300.276 389.2C299.78 388.207 299.118 387.503 298.291 387.09C297.505 386.676 296.615 386.469 295.622 386.469C294.754 386.469 293.906 386.676 293.079 387.09C292.293 387.503 291.631 388.207 291.093 389.2C290.596 390.151 290.348 391.475 290.348 393.171V410.359C290.348 410.814 290.204 411.186 289.914 411.475C289.624 411.765 289.252 411.91 288.797 411.91H282.716C282.261 411.91 281.889 411.765 281.599 411.475C281.31 411.186 281.165 410.814 281.165 410.359V393.171C281.165 391.475 280.917 390.151 280.42 389.2C279.924 388.207 279.262 387.503 278.435 387.09C277.649 386.676 276.78 386.469 275.829 386.469C274.96 386.469 274.112 386.697 273.285 387.152C272.457 387.566 271.775 388.248 271.237 389.2C270.741 390.151 270.492 391.454 270.492 393.109V410.359C270.492 410.814 270.348 411.186 270.058 411.475C269.768 411.765 269.417 411.91 269.003 411.91H262.736C262.322 411.91 261.971 411.765 261.681 411.475C261.392 411.186 261.247 410.814 261.247 410.359V381.195C261.247 380.74 261.392 380.368 261.681 380.078C261.971 379.789 262.323 379.644 262.736 379.644H268.507C268.92 379.644 269.272 379.789 269.561 380.078C269.892 380.368 270.058 380.74 270.058 381.195V383.305C270.885 382.147 272.023 381.154 273.471 380.327C274.96 379.499 276.718 379.065 278.745 379.023Z" fill="url(#paint6_linear_1678_62)"/>
<path d="M366.224 379.025C368.569 379.059 370.624 379.617 372.387 380.699C374.249 381.774 375.696 383.367 376.731 385.477C377.806 387.545 378.344 390.068 378.344 393.047V410.359C378.344 410.814 378.178 411.186 377.847 411.475C377.558 411.765 377.206 411.91 376.793 411.91H370.215C369.76 411.91 369.388 411.765 369.099 411.475C368.809 411.186 368.664 410.814 368.664 410.359V393.419C368.664 391.227 368.126 389.531 367.051 388.331C366.017 387.09 364.486 386.469 362.459 386.469C360.515 386.469 358.964 387.09 357.805 388.331C356.647 389.531 356.068 391.227 356.068 393.419V410.359C356.068 410.814 355.923 411.186 355.634 411.475C355.344 411.765 354.992 411.91 354.579 411.91H348.002C347.588 411.91 347.236 411.765 346.947 411.475C346.657 411.186 346.512 410.814 346.512 410.359V381.195C346.512 380.74 346.657 380.368 346.947 380.078C347.236 379.789 347.588 379.644 348.002 379.644H354.083C354.538 379.644 354.91 379.789 355.199 380.078C355.489 380.368 355.634 380.74 355.634 381.195V383.615C356.709 382.291 358.095 381.195 359.791 380.326C361.487 379.458 363.555 379.023 365.996 379.023L366.224 379.025Z" fill="url(#paint7_linear_1678_62)"/>
<path d="M392.736 367.854C393.191 367.854 393.564 367.999 393.853 368.289C394.143 368.578 394.288 368.951 394.288 369.406V379.644H402.044L402.121 379.646C402.501 379.663 402.827 379.807 403.099 380.078C403.388 380.368 403.533 380.74 403.533 381.195V385.415C403.533 385.87 403.388 386.242 403.099 386.531C402.809 386.821 402.458 386.966 402.044 386.966H394.288V399.252C394.288 400.824 394.556 402.065 395.094 402.975C395.673 403.843 396.666 404.278 398.073 404.278H402.602C403.016 404.278 403.368 404.422 403.657 404.712C403.947 405.002 404.092 405.353 404.092 405.767V410.359C404.092 410.814 403.947 411.186 403.657 411.475C403.368 411.765 403.016 411.91 402.602 411.91H397.204C394.639 411.91 392.447 411.496 390.627 410.669C388.807 409.8 387.421 408.476 386.469 406.698C385.559 404.919 385.104 402.685 385.104 399.996V386.966H380.264C379.809 386.966 379.437 386.821 379.148 386.531C378.858 386.242 378.713 385.87 378.713 385.415V381.195C378.713 380.74 378.858 380.368 379.148 380.078C379.437 379.789 379.81 379.644 380.264 379.644H385.104V369.406C385.104 368.951 385.249 368.578 385.539 368.289C385.87 367.999 386.242 367.855 386.655 367.854H392.736Z" fill="url(#paint8_linear_1678_62)"/>
<path d="M445.926 379.644C446.34 379.644 446.691 379.81 446.981 380.141C447.312 380.43 447.477 380.782 447.477 381.195V383.677C448.511 382.395 449.773 381.402 451.262 380.699C452.793 379.996 454.551 379.644 456.536 379.644H459.205C459.618 379.644 459.97 379.789 460.259 380.078C460.549 380.368 460.694 380.74 460.694 381.195V386.531C460.694 386.986 460.549 387.359 460.259 387.648C459.97 387.938 459.618 388.083 459.205 388.083H453.744C451.924 388.083 450.497 388.6 449.463 389.634C448.429 390.627 447.912 392.054 447.911 393.915V410.359C447.911 410.814 447.767 411.186 447.477 411.476C447.188 411.765 446.815 411.91 446.36 411.91H439.845C439.431 411.91 439.08 411.765 438.79 411.476C438.501 411.186 438.356 410.814 438.356 410.359V381.195C438.356 380.782 438.501 380.43 438.79 380.141C439.08 379.81 439.431 379.644 439.845 379.644H445.926Z" fill="url(#paint9_linear_1678_62)"/>
<path d="M330.941 412.507C330.269 412.526 329.597 412.545 328.923 412.561C328.86 412.555 328.796 412.549 328.732 412.545C329.47 412.534 330.206 412.522 330.941 412.507Z" fill="url(#paint10_linear_1678_62)"/>
<path d="M414.299 401.013C414.419 401.542 414.579 402.051 414.778 402.54C415.275 403.615 415.957 404.484 416.826 405.146C417.736 405.808 418.811 406.139 420.052 406.139C421.086 406.139 421.934 405.994 422.596 405.704C423.258 405.415 423.796 405.063 424.21 404.649C424.665 404.236 424.996 403.884 425.202 403.595C425.575 403.181 425.864 402.933 426.071 402.85C426.319 402.726 426.692 402.664 427.188 402.664H433.641C434.055 402.664 434.386 402.788 434.634 403.036C434.924 403.243 435.048 403.553 435.006 403.967C434.965 404.629 434.613 405.456 433.951 406.449C433.331 407.4 432.4 408.352 431.159 409.303C429.918 410.213 428.367 410.978 426.505 411.599C424.685 412.219 422.576 412.53 420.176 412.53C415.419 412.53 411.634 411.206 408.821 408.559C407.334 407.138 406.222 405.372 405.486 403.261C408.465 402.549 411.403 401.799 414.299 401.013Z" fill="url(#paint11_linear_1678_62)"/>
<path d="M355.859 411.184C355.797 411.288 355.722 411.386 355.633 411.475C355.343 411.765 354.991 411.909 354.578 411.909H348.001C347.808 411.909 347.629 411.877 347.463 411.815C350.281 411.635 353.08 411.424 355.859 411.184Z" fill="url(#paint12_linear_1678_62)"/>
<path d="M378.343 408.522V410.358C378.343 410.813 378.177 411.185 377.846 411.475C377.557 411.765 377.205 411.909 376.792 411.909H370.214C369.759 411.909 369.387 411.765 369.097 411.475C368.808 411.185 368.663 410.813 368.663 410.358V409.846C371.922 409.446 375.149 409.004 378.343 408.522Z" fill="url(#paint13_linear_1678_62)"/>
<path d="M402.601 404.277C403.015 404.277 403.367 404.422 403.656 404.712C403.946 405.001 404.09 405.353 404.09 405.766V410.358C404.09 410.813 403.946 411.185 403.656 411.475C403.366 411.765 403.015 411.909 402.601 411.909H397.203C394.638 411.909 392.446 411.496 390.626 410.668C388.963 409.875 387.663 408.702 386.725 407.149C391.605 406.287 396.397 405.328 401.093 404.277H402.601Z" fill="url(#paint14_linear_1678_62)"/>
<path d="M460.693 383.511V386.531C460.693 386.986 460.548 387.358 460.258 387.648C459.969 387.937 459.617 388.082 459.204 388.082H453.743C451.923 388.082 450.496 388.6 449.462 389.634C448.428 390.626 447.91 392.053 447.91 393.915V410.358C447.91 410.813 447.766 411.186 447.476 411.475C447.186 411.765 446.814 411.909 446.359 411.909H439.844C439.43 411.909 439.079 411.765 438.789 411.475C438.5 411.186 438.355 410.813 438.355 410.358V393.289C446.271 390.317 453.738 387.047 460.693 383.511Z" fill="url(#paint15_linear_1678_62)"/>
<path d="M482.401 337.5C482.386 337.899 482.376 338.3 482.376 338.702C482.376 355.177 495.523 368.582 511.898 368.997L512.681 369.007C496.347 369.007 483.033 381.931 482.401 398.11H482.341C481.587 382.044 468.323 369.248 452.07 369.248V369.247C468.807 369.247 482.376 355.679 482.376 338.942C482.376 338.459 482.364 337.978 482.342 337.5H482.401Z" fill="url(#paint16_linear_1678_62)"/>
<path d="M482.407 337.5C482.392 337.899 482.383 338.3 482.383 338.702C482.383 347.977 486.551 356.278 493.114 361.837C487.102 367.238 480.146 372.325 472.362 377.039C467.081 372.278 460.117 369.347 452.47 369.25L452.078 369.248C468.815 369.248 482.383 355.679 482.383 338.942C482.383 338.459 482.372 337.978 482.35 337.5H482.407Z" fill="url(#paint17_linear_1678_62)"/>
<path d="M528.255 363.726C530.178 363.42 531.86 363.224 533.302 363.136C534.787 363.005 536.142 362.94 537.365 362.94C541.341 362.94 544.531 363.486 546.934 364.578C549.337 365.627 551.085 367.331 552.177 369.69C553.27 372.006 553.816 375.108 553.816 378.997C553.816 382.842 553.27 385.944 552.177 388.304C551.085 390.663 549.337 392.389 546.934 393.481C544.531 394.53 541.341 395.054 537.365 395.054C536.142 395.054 534.984 395.011 533.892 394.923C532.799 394.836 531.641 394.705 530.418 394.53L532.122 389.811C533.171 389.986 534.132 390.117 535.006 390.204C535.88 390.292 536.819 390.336 537.824 390.336C540.446 390.336 542.521 389.964 544.05 389.221C545.623 388.479 546.759 387.277 547.458 385.617C548.157 383.956 548.507 381.75 548.507 378.997C548.507 376.201 548.157 373.994 547.458 372.378C546.759 370.717 545.623 369.516 544.05 368.773C542.521 368.03 540.446 367.659 537.824 367.659C536.819 367.659 535.836 367.702 534.875 367.79C533.913 367.877 532.93 368.008 531.925 368.183L533.629 366.348V411.439H528.255V363.726ZM561.746 380.308C563.887 379.565 566.181 378.932 568.628 378.407C571.118 377.883 573.565 377.468 575.968 377.162C578.415 376.856 580.665 376.703 582.719 376.703V381.291C580.927 381.291 579.027 381.422 577.017 381.684C575.007 381.903 573.019 382.23 571.053 382.667C569.087 383.104 567.295 383.629 565.678 384.24L566.989 381.75V411.439H561.746V380.308ZM600.021 412.095C595.521 412.095 592.2 410.784 590.059 408.162C587.962 405.497 586.913 401.346 586.913 395.71V393.088C586.913 387.452 587.962 383.323 590.059 380.701C592.2 378.036 595.521 376.703 600.021 376.703C604.566 376.703 607.886 378.036 609.983 380.701C612.081 383.323 613.129 387.452 613.129 393.088V395.71C613.129 401.346 612.081 405.497 609.983 408.162C607.886 410.784 604.566 412.095 600.021 412.095ZM600.021 407.507C602.861 407.507 604.871 406.568 606.051 404.689C607.274 402.81 607.886 399.708 607.886 395.382V393.416C607.886 389.09 607.274 385.988 606.051 384.109C604.871 382.23 602.861 381.291 600.021 381.291C597.225 381.291 595.215 382.23 593.992 384.109C592.768 385.988 592.157 389.09 592.157 393.416V395.382C592.157 399.708 592.768 402.81 593.992 404.689C595.215 406.568 597.225 407.507 600.021 407.507ZM619.028 421.27C623.091 421.27 626.063 420.287 627.941 418.321C629.864 416.355 630.825 413.253 630.825 409.014V381.946H619.028V377.359H636.068V408.621C636.068 414.432 634.648 418.758 631.808 421.598C629.012 424.438 624.752 425.858 619.028 425.858V421.27ZM632.398 371.198C631 371.198 629.864 370.805 628.99 370.018C628.16 369.188 627.745 368.096 627.745 366.741C627.745 365.343 628.16 364.251 628.99 363.464C629.864 362.678 631 362.284 632.398 362.284C633.796 362.284 634.911 362.678 635.741 363.464C636.615 364.251 637.051 365.343 637.051 366.741C637.051 368.096 636.615 369.188 635.741 370.018C634.911 370.805 633.796 371.198 632.398 371.198ZM662.678 412.095C657.566 412.095 653.764 410.762 651.274 408.097C648.783 405.388 647.538 401.259 647.538 395.71V393.088C647.538 387.452 648.565 383.323 650.618 380.701C652.716 378.036 655.949 376.703 660.318 376.703C664.731 376.703 667.965 378.036 670.018 380.701C672.072 383.323 673.098 387.452 673.098 393.088V396.627H650.094V392.367H669.166L667.986 393.875V393.285C667.986 389.003 667.375 385.923 666.151 384.044C664.972 382.121 663.027 381.16 660.318 381.16C657.609 381.16 655.643 382.121 654.42 384.044C653.24 385.923 652.65 389.003 652.65 393.285V395.513C652.65 398.528 652.978 400.931 653.633 402.723C654.289 404.47 655.381 405.737 656.91 406.524C658.439 407.267 660.493 407.638 663.071 407.638C664.338 407.638 665.627 407.551 666.938 407.376C668.292 407.201 669.734 406.917 671.263 406.524V411.046C669.953 411.352 668.533 411.592 667.003 411.767C665.518 411.986 664.076 412.095 662.678 412.095ZM693.219 412.095C683.126 412.095 678.08 406.633 678.08 395.71V393.088C678.08 382.165 683.148 376.703 693.285 376.703C696.125 376.703 698.703 377.053 701.019 377.752V391.45H695.906V378.538L698.397 382.274C697.436 381.925 696.474 381.684 695.513 381.553C694.552 381.378 693.591 381.291 692.629 381.291C689.396 381.291 687.037 382.252 685.551 384.175C684.066 386.097 683.323 389.178 683.323 393.416V395.382C683.323 398.31 683.65 400.669 684.306 402.46C685.005 404.252 686.119 405.541 687.648 406.327C689.178 407.114 691.209 407.507 693.744 407.507C694.967 407.507 696.169 407.42 697.348 407.245C698.528 407.07 699.751 406.786 701.019 406.393V411.046C699.839 411.352 698.594 411.592 697.283 411.767C695.972 411.986 694.617 412.095 693.219 412.095ZM725.334 412.095C721.489 412.095 718.714 411.308 717.01 409.735C715.35 408.162 714.52 405.519 714.52 401.805V381.946H706V377.359H714.52V366.217H719.763V377.359H732.871V381.946H719.763V400.691C719.763 403.269 720.222 405.06 721.139 406.065C722.101 407.026 723.848 407.507 726.383 407.507C727.606 407.507 728.742 407.42 729.791 407.245C730.883 407.026 731.91 406.742 732.871 406.393V410.981C731.648 411.374 730.402 411.658 729.135 411.833C727.912 412.007 726.645 412.095 725.334 412.095Z" fill="#F95A26"/>
</g>
<defs>
<linearGradient id="paint0_linear_1678_62" x1="1136.12" y1="188.226" x2="67.121" y2="188.226" gradientUnits="userSpaceOnUse">
<stop stop-color="#FF4A2A"/>
<stop offset="0.841346" stop-color="#F56623"/>
</linearGradient>
<linearGradient id="paint1_linear_1678_62" x1="148" y1="396.708" x2="460.694" y2="396.708" gradientUnits="userSpaceOnUse">
<stop stop-color="#0793E2"/>
<stop offset="1" stop-color="#00B2B3"/>
</linearGradient>
<linearGradient id="paint2_linear_1678_62" x1="148" y1="396.708" x2="460.694" y2="396.708" gradientUnits="userSpaceOnUse">
<stop stop-color="#0793E2"/>
<stop offset="1" stop-color="#00B2B3"/>
</linearGradient>
<linearGradient id="paint3_linear_1678_62" x1="148" y1="396.708" x2="460.694" y2="396.708" gradientUnits="userSpaceOnUse">
<stop stop-color="#0793E2"/>
<stop offset="1" stop-color="#00B2B3"/>
</linearGradient>
<linearGradient id="paint4_linear_1678_62" x1="148" y1="396.708" x2="460.694" y2="396.708" gradientUnits="userSpaceOnUse">
<stop stop-color="#0793E2"/>
<stop offset="1" stop-color="#00B2B3"/>
</linearGradient>
<linearGradient id="paint5_linear_1678_62" x1="148" y1="396.708" x2="460.694" y2="396.708" gradientUnits="userSpaceOnUse">
<stop stop-color="#0793E2"/>
<stop offset="1" stop-color="#00B2B3"/>
</linearGradient>
<linearGradient id="paint6_linear_1678_62" x1="148" y1="396.708" x2="460.694" y2="396.708" gradientUnits="userSpaceOnUse">
<stop stop-color="#0793E2"/>
<stop offset="1" stop-color="#00B2B3"/>
</linearGradient>
<linearGradient id="paint7_linear_1678_62" x1="148" y1="396.708" x2="460.694" y2="396.708" gradientUnits="userSpaceOnUse">
<stop stop-color="#0793E2"/>
<stop offset="1" stop-color="#00B2B3"/>
</linearGradient>
<linearGradient id="paint8_linear_1678_62" x1="148" y1="396.708" x2="460.694" y2="396.708" gradientUnits="userSpaceOnUse">
<stop stop-color="#0793E2"/>
<stop offset="1" stop-color="#00B2B3"/>
</linearGradient>
<linearGradient id="paint9_linear_1678_62" x1="148" y1="396.708" x2="460.694" y2="396.708" gradientUnits="userSpaceOnUse">
<stop stop-color="#0793E2"/>
<stop offset="1" stop-color="#00B2B3"/>
</linearGradient>
<linearGradient id="paint10_linear_1678_62" x1="460.955" y1="398.382" x2="328.994" y2="398.382" gradientUnits="userSpaceOnUse">
<stop stop-color="#F56623"/>
<stop offset="1" stop-color="#FF4A2A"/>
</linearGradient>
<linearGradient id="paint11_linear_1678_62" x1="460.955" y1="398.382" x2="328.994" y2="398.382" gradientUnits="userSpaceOnUse">
<stop stop-color="#F56623"/>
<stop offset="1" stop-color="#FF4A2A"/>
</linearGradient>
<linearGradient id="paint12_linear_1678_62" x1="460.955" y1="398.382" x2="328.994" y2="398.382" gradientUnits="userSpaceOnUse">
<stop stop-color="#F56623"/>
<stop offset="1" stop-color="#FF4A2A"/>
</linearGradient>
<linearGradient id="paint13_linear_1678_62" x1="460.955" y1="398.382" x2="328.994" y2="398.382" gradientUnits="userSpaceOnUse">
<stop stop-color="#F56623"/>
<stop offset="1" stop-color="#FF4A2A"/>
</linearGradient>
<linearGradient id="paint14_linear_1678_62" x1="460.955" y1="398.382" x2="328.994" y2="398.382" gradientUnits="userSpaceOnUse">
<stop stop-color="#F56623"/>
<stop offset="1" stop-color="#FF4A2A"/>
</linearGradient>
<linearGradient id="paint15_linear_1678_62" x1="460.955" y1="398.382" x2="328.994" y2="398.382" gradientUnits="userSpaceOnUse">
<stop stop-color="#F56623"/>
<stop offset="1" stop-color="#FF4A2A"/>
</linearGradient>
<linearGradient id="paint16_linear_1678_62" x1="512.801" y1="368.527" x2="452.191" y2="368.527" gradientUnits="userSpaceOnUse">
<stop stop-color="#F56623"/>
<stop offset="1" stop-color="#FF4A2A"/>
</linearGradient>
<linearGradient id="paint17_linear_1678_62" x1="452.078" y1="357.27" x2="493.114" y2="357.27" gradientUnits="userSpaceOnUse">
<stop stop-color="#0793E2"/>
<stop offset="1" stop-color="#00B2B3"/>
</linearGradient>
<clipPath id="clip0_1678_62">
<rect width="1200" height="484" rx="43" fill="white"/>
</clipPath>
</defs>
</svg>
